<svg width="93" height="21" viewBox="0 0 93 21" fill="none" xmlns="http://www.w3.org/2000/svg">
<g id="Logo Orange-Black 1">
<g id="Union">
<path fill-rule="evenodd" clip-rule="evenodd" d="M73.4878 15.3892C74.3832 16.9124 75.5928 18.099 77.1161 18.9479C78.6393 19.7973 80.3141 20.2218 82.1424 20.2218C83.9707 20.2218 85.6417 19.7973 87.1559 18.9479C88.6695 18.099 89.87 16.9124 90.7563 15.3892C91.6427 13.8659 92.0858 12.1527 92.0858 10.2515C92.0858 8.35032 91.647 6.64193 90.7702 5.12778C89.893 3.61363 88.693 2.43186 87.1698 1.58245C85.6465 0.733534 83.9707 0.308594 82.1429 0.308594C80.3151 0.308594 78.6393 0.733534 77.1161 1.58245C75.5928 2.43233 74.3832 3.61411 73.4878 5.12778C72.5918 6.64193 72.1443 8.34984 72.1443 10.2515C72.1443 12.1532 72.5918 13.8659 73.4878 15.3892ZM87.2671 10.251C87.2671 11.9503 86.8005 13.3163 85.8686 14.3503C84.9357 15.3849 83.7132 15.9014 82.1434 15.9014C80.5736 15.9014 79.3228 15.3892 78.3904 14.3642C77.458 13.3398 76.9918 11.9873 76.9918 10.2515C76.9918 8.51579 77.458 7.14025 78.3904 6.12442C79.3228 5.10907 80.5923 4.60116 82.1434 4.60116C83.6945 4.60116 84.9357 5.11339 85.8686 6.13833C86.8005 7.16279 87.2671 8.55176 87.2671 10.251Z" fill="#222222"/>
<path d="M52.9794 4.37921V0.584961H37.9401V4.37969H43.0916V20.0276H47.8278V4.37921H52.9794Z" fill="#222222"/>
<path d="M12.6576 4.46612V0.671875H0V20.1146H4.73621V12.2489H10.6633V8.5654H4.73621V4.46612H12.6576Z" fill="#222222"/>
<path fill-rule="evenodd" clip-rule="evenodd" d="M69.5136 11.7332C70.1966 12.6104 70.5386 13.6123 70.5386 14.7384C70.5386 16.3634 69.9707 17.6511 68.835 18.6017C67.6992 19.5528 66.116 20.0281 64.0849 20.0281H55.0283V0.584961H63.7803C65.7558 0.584961 67.3021 1.03772 68.4196 1.94227C69.5367 2.84731 70.0954 4.07513 70.0954 5.62573C70.0954 6.77057 69.7952 7.72165 69.1952 8.47849C68.5952 9.2358 67.7966 9.76194 66.7995 10.0574C67.9256 10.2977 68.8302 10.8564 69.5136 11.7332ZM59.7645 8.45115H62.8666C63.6422 8.45115 64.2379 8.2804 64.6532 7.93892C65.0686 7.59743 65.2762 7.09431 65.2762 6.42956C65.2762 5.76482 65.0686 5.25738 64.6532 4.9063C64.2379 4.5557 63.6422 4.38016 62.8666 4.38016H59.7645V8.45115ZM65.0959 15.666C65.5295 15.3058 65.7467 14.7845 65.7467 14.101C65.7467 13.4176 65.5203 12.8823 65.0681 12.4943C64.6153 12.1068 63.9923 11.9125 63.1985 11.9125H59.764V16.2056H63.2537C64.0474 16.2056 64.6618 16.0262 65.0959 15.666Z" fill="#222222"/>
<path d="M26.3271 0.377441C20.8237 0.37818 16.363 4.83899 16.363 10.3429C16.363 13.7731 18.0968 16.7981 20.7343 18.5904V14.5539C19.328 13.6916 18.3899 12.1396 18.3899 10.3688C18.3899 7.65802 20.587 5.46137 23.2973 5.46137C24.446 5.46137 25.5002 5.8561 26.3367 6.51701C27.1721 5.8561 28.2278 5.46137 29.376 5.46137C32.0868 5.46137 34.2834 7.6585 34.2834 10.3688C34.2834 12.1482 33.3381 13.706 31.9203 14.5655V18.5904C34.5592 16.7981 36.2916 13.7731 36.2916 10.3429C36.2916 4.83899 31.8309 0.37818 26.3271 0.377441Z" fill="#222222"/>
<path d="M12.3108 10.343C12.3108 12.002 13.564 13.3684 15.176 13.5482C14.8844 12.53 14.7242 11.4557 14.7242 10.343C14.7242 9.23026 14.8844 8.15592 15.176 7.1377C13.564 7.31803 12.3108 8.68398 12.3108 10.343Z" fill="#222222"/>
<path d="M37.9329 10.3425C37.9329 9.22977 37.7727 8.15543 37.4811 7.13721C39.0931 7.31706 40.3463 8.68349 40.3463 10.3425C40.3463 12.0015 39.0931 13.3674 37.4811 13.5478C37.7727 12.5295 37.9329 11.4552 37.9329 10.3425Z" fill="#222222"/>
</g>
<path id="Vector" d="M32.6791 10.3686C32.6791 8.54505 31.2 7.06592 29.3765 7.06592C28.012 7.06592 26.8403 7.89422 26.3371 9.07407C25.8335 7.89278 24.6623 7.06592 23.2978 7.06592C21.4743 7.06592 19.9952 8.54505 19.9952 10.3686C19.9952 11.8746 21.0053 13.1451 22.3837 13.5427V17.8923C22.3837 18.5302 22.5367 19.1326 22.8057 19.6659C23.9012 20.0808 25.0873 20.3081 26.3285 20.3081C27.5698 20.3081 28.7558 20.0793 29.8513 19.6659C30.1204 19.1326 30.2734 18.5302 30.2734 17.8923C30.2734 17.7906 30.2676 17.6904 30.2604 17.5906V13.5513C31.6551 13.1652 32.6791 11.8865 32.6791 10.3686ZM26.328 14.1618L24.1937 12.9033L25.0292 11.487L26.328 12.2539L27.6268 11.487L28.4623 12.9033L26.328 14.1618Z" fill="#FA7342"/>
</g>
</svg>
