<svg width="104" height="20" viewBox="0 0 104 20" fill="none" xmlns="http://www.w3.org/2000/svg">
<g clip-path="url(#clip0_2426_1960)">
<mask id="mask0_2426_1960" style="mask-type:luminance" maskUnits="userSpaceOnUse" x="0" y="0" width="104" height="20">
<path d="M0 0H104V19.6759H0V0Z" fill="white"/>
</mask>
<g mask="url(#mask0_2426_1960)">
<path d="M24.9104 5.26131C26.042 5.26131 27.0097 5.67717 27.8114 6.50959C28.6138 7.34338 29.0153 8.35786 29.0153 9.55579C29.0153 10.753 28.6138 11.782 27.8114 12.6089C27.0097 13.4365 26.042 13.8503 24.9104 13.8503C23.6583 13.8503 22.6961 13.393 22.026 12.4779V16.9034H20.2456V5.47304H22.026V6.6489C22.6961 5.72338 23.6576 5.26062 24.9104 5.26062V5.26131ZM22.7677 11.4254C23.2622 11.9206 23.8835 12.1682 24.6301 12.1682C25.3774 12.1682 25.9986 11.9199 26.4931 11.4254C26.9877 10.9303 27.2349 10.3068 27.2349 9.55579C27.2349 8.80407 26.987 8.18131 26.4931 7.68545C25.9986 7.19097 25.3774 6.94269 24.6301 6.94269C23.8828 6.94269 23.2622 7.19097 22.7677 7.68545C22.2732 8.18131 22.026 8.80476 22.026 9.55579C22.026 10.3068 22.2725 10.9296 22.7677 11.4254ZM36.9937 5.47373H38.7741V13.6379H36.9937V12.4627C36.3229 13.3875 35.3614 13.8503 34.1079 13.8503C32.9763 13.8503 32.0093 13.4344 31.2076 12.602C30.4052 11.7682 30.0043 10.7537 30.0043 9.55579C30.0043 8.35855 30.4052 7.32959 31.2076 6.50269C32.0093 5.67511 32.9763 5.26131 34.1086 5.26131C35.3614 5.26131 36.3229 5.71924 36.9937 6.63373V5.47304V5.47373ZM32.5258 11.4254C33.0203 11.9206 33.6416 12.1682 34.3889 12.1682C35.1362 12.1682 35.7567 11.9199 36.2512 11.4254C36.7457 10.9303 36.9937 10.3068 36.9937 9.55579C36.9937 8.80407 36.7457 8.18131 36.2512 7.68545C35.7567 7.19097 35.1355 6.94269 34.3889 6.94269C33.6416 6.94269 33.0203 7.19097 32.5258 7.68545C32.0313 8.18131 31.784 8.80476 31.784 9.55579C31.784 10.3068 32.032 10.9296 32.5258 11.4254ZM46.2407 5.47373H48.1362L44.9721 13.8992C44.18 16.011 42.8397 17.0123 40.9498 16.9034V15.2551C41.5098 15.2875 41.9602 15.1703 42.3011 14.9034C42.6414 14.6365 42.9217 14.2206 43.1414 13.6551L43.2241 13.491L39.7294 5.47373H41.6744L44.1304 11.4006L46.2407 5.47373ZM56.3776 13.6379H54.2522L50.8725 9.86545V13.6379H49.0921V2.20752H50.8725V9.08131L54.071 5.47304H56.2468L52.6199 9.47304L56.3776 13.6379ZM63.2857 5.47304H65.0654V13.6379H63.285V12.4627C62.6149 13.3875 61.6527 13.8503 60.3999 13.8503C59.2683 13.8503 58.3013 13.4344 57.4989 12.602C56.6965 11.7682 56.2957 10.7537 56.2957 9.55579C56.2957 8.35855 56.6965 7.32959 57.4989 6.50269C58.3013 5.67511 59.2683 5.26131 60.3999 5.26131C61.6534 5.26131 62.6142 5.71924 63.2857 6.63373V5.47304ZM58.8179 11.4254C59.3124 11.9206 59.9336 12.1682 60.6802 12.1682C61.4275 12.1682 62.0487 11.9199 62.5433 11.4254C63.0378 10.9303 63.285 10.3068 63.285 9.55579C63.285 8.80407 63.0378 8.18131 62.5433 7.68545C62.0487 7.19097 61.4275 6.94269 60.6802 6.94269C59.9329 6.94269 59.3124 7.19097 58.8179 7.68545C58.3233 8.18131 58.0754 8.80476 58.0754 9.55579C58.0754 10.3068 58.3233 10.9296 58.8179 11.4254ZM68.5925 7.72683C68.5925 7.99924 68.744 8.21442 69.0464 8.37166C69.348 8.53028 69.7165 8.66614 70.1504 8.78062C70.585 8.89442 71.0217 9.02821 71.4611 9.18062C71.8968 9.33075 72.2822 9.5994 72.5741 9.95648C72.8758 10.3213 73.0273 10.7813 73.0273 11.3358C73.0273 12.1206 72.7229 12.7358 72.1126 13.1813C71.5024 13.6282 70.7365 13.851 69.8129 13.851C69.0002 13.851 68.3018 13.682 67.7191 13.3448C67.1551 13.0273 66.7097 12.5343 66.4505 11.9406L67.9836 11.0586C68.2688 11.8427 68.879 12.2344 69.8129 12.2344C70.7476 12.2344 71.2145 11.9296 71.2145 11.3199C71.2145 11.0586 71.063 10.8461 70.7613 10.6834C70.4583 10.5199 70.0912 10.3813 69.6566 10.2668C69.2149 10.1505 68.7779 10.017 68.3466 9.86683C67.9138 9.7193 67.5291 9.45686 67.2336 9.10752C66.9312 8.75373 66.7804 8.30476 66.7804 7.76062C66.7804 7.0089 67.069 6.40545 67.6455 5.94752C68.2219 5.49028 68.9389 5.262 69.7964 5.262C70.4776 5.262 71.085 5.41166 71.6181 5.71097C72.1399 5.99935 72.5666 6.43356 72.8461 6.96062L71.3461 7.79304C71.0602 7.17235 70.5437 6.862 69.7964 6.862C69.4562 6.862 69.1696 6.93648 68.9396 7.08269C68.7089 7.22959 68.5932 7.44545 68.5932 7.72821V7.72683H68.5925ZM75.9937 7.72683C75.9937 7.99924 76.1445 8.21442 76.4476 8.37166C76.7492 8.53028 77.1177 8.66614 77.5516 8.78062C77.9862 8.89442 78.4229 9.02821 78.8623 9.18062C79.298 9.33075 79.6834 9.5994 79.9753 9.95648C80.277 10.3213 80.4285 10.7813 80.4285 11.3358C80.4285 12.1206 80.1241 12.7358 79.5138 13.1813C78.9036 13.6282 78.1371 13.851 77.2141 13.851C76.4007 13.851 75.703 13.682 75.1211 13.3448C74.5567 13.0274 74.111 12.5345 73.8517 11.9406L75.3842 11.0586C75.67 11.8427 76.2802 12.2344 77.2141 12.2344C78.1488 12.2344 78.6157 11.9296 78.6157 11.3199C78.6157 11.0586 78.4642 10.8461 78.1625 10.6834C77.8595 10.5199 77.4917 10.3813 77.0578 10.2668C76.6159 10.1505 76.1787 10.017 75.7471 9.86683C75.3145 9.71925 74.9301 9.45681 74.6348 9.10752C74.3324 8.75373 74.1809 8.30476 74.1809 7.76062C74.1809 7.0089 74.4695 6.40545 75.0467 5.94752C75.6231 5.49028 76.3401 5.262 77.1976 5.262C77.8788 5.262 78.4863 5.41166 79.0193 5.71097C79.5411 5.99935 79.9678 6.43356 80.2474 6.96062L78.7473 7.79304C78.4615 7.17235 77.9449 6.862 77.1976 6.862C76.8574 6.862 76.5709 6.93648 76.3408 7.08269C76.1101 7.22959 75.9944 7.44545 75.9944 7.72821L75.9937 7.72683ZM90.8292 5.26131C91.7631 5.26131 92.5166 5.56062 93.0876 6.15924C93.6592 6.75855 93.9451 7.56338 93.9451 8.57648V13.6386H92.1647V8.69097C92.1647 8.12476 92.0214 7.68614 91.7356 7.37579C91.4497 7.06545 91.0599 6.91097 90.5654 6.91097C90.0158 6.91097 89.5791 7.09028 89.2547 7.44959C88.9303 7.80821 88.7685 8.34821 88.7685 9.06614V13.6386H86.9881V8.69097C86.9881 8.12476 86.8538 7.68614 86.5845 7.37579C86.3152 7.06545 85.9329 6.91097 85.4384 6.91097C84.8998 6.91097 84.4604 7.09304 84.1202 7.45786C83.7792 7.82338 83.6091 8.35924 83.6091 9.06614V13.6386H81.828V5.47304H83.6091V6.45304C84.136 5.65855 84.9219 5.26131 85.966 5.26131C87.0101 5.26131 87.8008 5.69097 88.307 6.55097C88.8566 5.69097 89.6969 5.26131 90.8292 5.26131ZM102.22 5.47304H104.001V13.6379H102.22V12.4627C101.55 13.3875 100.589 13.8503 99.3352 13.8503C98.2029 13.8503 97.2359 13.4344 96.4342 12.602C95.6318 11.7682 95.2309 10.7537 95.2309 9.55579C95.2309 8.35855 95.6318 7.32959 96.4342 6.50269C97.2359 5.67511 98.2029 5.26131 99.3352 5.26131C100.588 5.26131 101.549 5.71924 102.22 6.63373V5.47304ZM97.7531 11.4254C98.2476 11.9206 98.8682 12.1682 99.6155 12.1682C100.363 12.1682 100.983 11.9199 101.478 11.4254C101.972 10.9303 102.22 10.3068 102.22 9.55579C102.22 8.80407 101.972 8.18131 101.478 7.68545C100.983 7.19097 100.363 6.94269 99.6155 6.94269C98.8682 6.94269 98.2476 7.19097 97.7531 7.68545C97.2586 8.18131 97.0107 8.80476 97.0107 9.55579C97.0107 10.3068 97.2579 10.9296 97.7531 11.4254Z" fill="#21324E"/>
<path d="M12.1425 0H3.73023C2.41748 0 1.31687 1.01655 1.22596 2.31379L0 19.6759H8.41229C9.72503 19.6759 10.8256 18.6593 10.9166 17.3621L11.0832 15.0014H13.4608C14.7735 15.0014 15.8741 13.9848 15.9657 12.6876L16.8604 0H12.1425ZM10.7354 1.29931L9.86072 13.7007H6.45558L7.25245 2.40414C7.27606 2.10289 7.41244 1.82169 7.63427 1.61683C7.8561 1.41196 8.14702 1.29856 8.4488 1.29931H10.7354ZM9.60795 17.2717C9.58418 17.5727 9.44783 17.8537 9.22616 18.0584C9.00449 18.2631 8.71384 18.3765 8.41229 18.3759H1.4071L2.53457 2.40483C2.55801 2.10358 2.69421 1.8223 2.91592 1.61731C3.13762 1.41232 3.42846 1.29875 3.73023 1.29931H6.24551C6.07252 1.61145 5.96979 1.9577 5.94453 2.31379L5.04917 15.0014H9.76842L9.60795 17.271V17.2717ZM14.6571 12.5965C14.6335 12.8977 14.4972 13.1788 14.2755 13.3836C14.0539 13.5885 13.7631 13.702 13.4615 13.7014H11.1748L12.0509 1.29931H15.4547L14.6571 12.5965Z" fill="url(#paint0_linear_2426_1960)"/>
</g>
</g>
<defs>
<linearGradient id="paint0_linear_2426_1960" x1="16.5298" y1="0.344827" x2="-0.0252637" y2="19.6335" gradientUnits="userSpaceOnUse">
<stop offset="0.2" stop-color="#5B48D9"/>
<stop offset="0.585" stop-color="#52F0D8"/>
</linearGradient>
<clipPath id="clip0_2426_1960">
<rect width="104" height="20" fill="white"/>
</clipPath>
</defs>
</svg>
