<svg width="58" height="25" viewBox="0 0 58 25" fill="none" xmlns="http://www.w3.org/2000/svg">
<path id="Stripe" fill-rule="evenodd" clip-rule="evenodd" d="M31.4321 3.33596L27.393 4.22336V0.870966L31.4321 0V3.33596ZM39.8321 5.19293C38.2551 5.19293 37.2413 5.94887 36.6781 6.47473L36.4689 5.45587H32.9287V24.6171L36.9517 23.7462L36.9678 19.0955C37.5471 19.5228 38.3999 20.1308 39.816 20.1308C42.6965 20.1308 45.3195 17.7644 45.3195 12.5551C45.3034 7.7894 42.6482 5.19293 39.8321 5.19293ZM38.8664 16.5155C37.917 16.5155 37.3538 16.1704 36.9676 15.7431L36.9515 9.64637C37.3699 9.1698 37.9492 8.84113 38.8664 8.84113C40.3308 8.84113 41.3446 10.5173 41.3446 12.6701C41.3446 14.8722 40.3469 16.5155 38.8664 16.5155ZM58 12.7194C58 8.51247 56.0046 5.19293 52.1908 5.19293C48.3609 5.19293 46.0437 8.51247 46.0437 12.6865C46.0437 17.633 48.7793 20.1308 52.7057 20.1308C54.6207 20.1308 56.069 19.6871 57.1632 19.0627V15.776C56.069 16.3347 54.8138 16.6798 53.2207 16.6798C51.6598 16.6798 50.2759 16.1211 50.0988 14.182H57.9678C57.9678 14.0914 57.9736 13.8856 57.9803 13.6486V13.6485L57.9803 13.6482V13.6482V13.6481L57.9803 13.6479C57.9893 13.3259 58 12.9464 58 12.7194ZM50.0505 11.1582C50.0505 9.30126 51.1609 8.5289 52.1747 8.5289C53.1563 8.5289 54.2023 9.30126 54.2023 11.1582H50.0505ZM27.393 5.4723H31.4321V19.8515H27.393V5.4723ZM22.8069 5.4723L23.0644 6.68837C24.0138 4.91357 25.8966 5.2751 26.4115 5.4723V9.25196C25.9127 9.0712 24.3035 8.84113 23.3541 10.1065V19.8515H19.3311V5.4723H22.8069ZM15.0183 1.90627L11.0919 2.7608L11.0758 15.9239C11.0758 18.356 12.862 20.1473 15.2436 20.1473C16.5632 20.1473 17.5287 19.9008 18.0597 19.605V16.269C17.5448 16.4826 15.0023 17.2386 15.0023 14.8064V8.9726H18.0597V5.4723H15.0023L15.0183 1.90627ZM5.50817 8.75897C4.6553 8.75897 4.14036 9.00547 4.14036 9.64637C4.14036 10.3461 5.02658 10.6539 6.12604 11.0358C7.91842 11.6584 10.2775 12.4778 10.2875 15.5131C10.2875 18.4546 7.98633 20.1473 4.63921 20.1473C3.2553 20.1473 1.74265 19.8679 0.246103 19.2106V15.2994C1.59783 16.0554 3.30357 16.6141 4.63921 16.6141C5.54036 16.6141 6.18403 16.3676 6.18403 15.6117C6.18403 14.8365 5.22335 14.4823 4.06354 14.0545C2.29723 13.4031 0.0690918 12.5814 0.0690918 9.84357C0.0690918 6.93487 2.24151 5.19293 5.50817 5.19293C6.8438 5.19293 8.16334 5.40657 9.49898 5.94887V9.8107C8.27599 9.13693 6.73116 8.75897 5.50817 8.75897Z" fill="#6772E5"/>
</svg>
